<svg width="470" height="75" viewBox="0 0 470 75" fill="none" xmlns="http://www.w3.org/2000/svg">
<g clip-path="url(#clip0_148_369)">
<path d="M9.84566 62.1017H0.234375V1.9126H9.84566V62.097V62.1017ZM27.6315 62.1017H3.38023V53.3872H27.6362C32.308 53.3872 36.1253 52.6829 39.088 51.279C42.0508 49.8704 44.2529 47.5979 45.6896 44.4521C47.1264 41.3062 47.8448 37.1602 47.8448 32.0095C47.8448 26.8588 47.1264 22.6377 45.6896 19.5247C44.2529 16.4117 42.0508 14.1486 39.088 12.7447C36.1253 11.3361 32.308 10.6318 27.6362 10.6318H3.38023V1.9126H27.6362C33.9232 1.9126 39.3275 3.12399 43.8491 5.55146C48.3706 7.97893 51.8733 11.4347 54.3571 15.9281C56.841 20.4215 58.0852 25.7788 58.0852 32.0048C58.0852 38.2308 56.841 43.5928 54.3571 48.0862C51.8733 52.5796 48.3706 56.0354 43.8491 58.4628C39.3275 60.8856 33.9232 62.1017 27.6362 62.1017H27.6315Z" fill="#222222"/>
<path d="M92.3094 41.8884H83.3273L56.5547 1.9126H68.4103L82.6042 23.2903L87.6329 30.9249H88.3513L93.2908 23.2903L107.4 1.9126H119.35L92.3094 41.8884ZM92.5771 62.1017H82.9658V35.6014H92.5771V62.1017Z" fill="#222222"/>
<path d="M161.208 62.1017H126.266V1.9126H159.95C163.842 1.9126 167.148 2.48073 169.876 3.61699C172.599 4.75326 174.698 6.43418 176.163 8.64566C177.628 10.8618 178.365 13.557 178.365 16.731C178.365 20.2665 177.332 23.2575 175.266 25.7131C173.2 28.1687 169.862 29.6665 165.251 30.2065V30.8357C170.401 31.4367 174.233 33.0378 176.75 35.6437C179.266 38.2496 180.525 41.5269 180.525 45.4803C180.525 48.8938 179.773 51.8566 178.28 54.3732C176.782 56.8899 174.599 58.8056 171.721 60.1203C168.847 61.4397 165.345 62.097 161.213 62.097L161.208 62.1017ZM135.872 10.6271V27.1546H158.597C162.011 27.1546 164.556 26.4831 166.232 25.1309C167.908 23.7833 168.749 21.7033 168.749 18.8861C168.749 16.0689 167.941 13.9889 166.326 12.6414C164.711 11.2938 162.222 10.6177 158.87 10.6177H135.872V10.6271ZM135.872 35.1507V53.3872H160.128C163.72 53.3872 166.401 52.6548 168.167 51.1851C169.932 49.7202 170.815 47.3678 170.815 44.1328C170.815 40.8977 169.932 38.6674 168.167 37.2589C166.401 35.8503 163.72 35.146 160.128 35.146H135.872V35.1507Z" fill="#222222"/>
<path d="M203.255 39.6442H191.038V25.7227H203.255V39.6442Z" fill="#222222"/>
<path d="M218.876 62.1017H208.096L234.953 1.9126H248.607L275.464 62.097H264.505L245.55 19.4261L242.047 10.8947H241.329L237.826 19.4261L218.871 62.097L218.876 62.1017ZM261.542 46.471H221.388V37.7566H261.542V46.471Z" fill="#222222"/>
<path d="M293.254 62.1017H283.554V1.9126H314.815C319.365 1.9126 323.304 2.60281 326.628 3.97853C329.953 5.35895 332.498 7.36385 334.263 9.99791C336.028 12.6367 336.911 15.8389 336.911 19.6092C336.911 22.9663 336.207 25.8399 334.798 28.2345C333.39 30.6291 331.357 32.5166 328.69 33.8923C326.023 35.2727 322.806 36.0803 319.031 36.3151V36.9443C321.365 37.5453 323.177 38.5172 324.469 39.8647C325.755 41.2123 326.938 42.8463 328.018 44.7619L338.08 62.097H326.943L317.332 45.4803C316.435 43.8651 315.458 42.5598 314.411 41.5738C313.364 40.5878 312.059 39.8694 310.505 39.4187C308.946 38.9679 306.88 38.7426 304.307 38.7426H293.259V62.097L293.254 62.1017ZM293.254 10.6271V31.2864H314.726C318.736 31.2864 321.759 30.507 323.797 28.9529C325.83 27.394 326.849 24.7318 326.849 20.9568C326.849 17.1817 325.83 14.6697 323.797 13.0499C321.759 11.4347 318.736 10.6224 314.726 10.6224H293.254V10.6271Z" fill="#222222"/>
<path d="M377.065 62.9988C370.778 62.9988 365.28 61.7264 360.58 59.1815C355.88 56.6367 352.227 53.0448 349.621 48.4011C347.015 43.7622 345.715 38.2968 345.715 32.0051C345.715 25.7134 347.015 20.2528 349.621 15.6138C352.227 10.9749 355.88 7.37825 360.58 4.8334C365.28 2.28854 370.774 1.01611 377.065 1.01611C383.357 1.01611 389.01 2.28854 393.682 4.8334C398.354 7.37825 401.993 10.9749 404.599 15.6138C407.205 20.2575 408.505 25.7181 408.505 32.0051C408.505 38.2921 407.2 43.7575 404.599 48.4011C401.993 53.0448 398.354 56.6367 393.682 59.1815C389.01 61.7264 383.47 62.9988 377.065 62.9988ZM377.065 53.6552C381.794 53.6552 385.733 52.8898 388.879 51.3639C392.02 49.8379 394.372 47.4715 395.931 44.2693C397.49 41.0671 398.265 36.9775 398.265 32.0051C398.265 27.0328 397.485 22.8728 395.931 19.6987C394.372 16.5247 392.025 14.1771 388.879 12.6464C385.733 11.1204 381.794 10.3551 377.065 10.3551C372.337 10.3551 368.398 11.1204 365.252 12.6464C362.106 14.1724 359.773 16.5247 358.247 19.6987C356.721 22.8728 355.955 26.9765 355.955 32.0051C355.955 37.0338 356.721 41.0624 358.247 44.2693C359.773 47.4762 362.111 49.8379 365.252 51.3639C368.393 52.8898 372.333 53.6552 377.065 53.6552ZM396.828 74.7653H384.611L370.328 55.5427H381.197L396.828 74.7653Z" fill="#222222"/>
<path d="M444.523 62.9988C438.593 62.9988 433.611 62.1584 429.569 60.4821C425.526 58.8059 422.488 56.4254 420.45 53.3406C418.413 50.2558 417.398 46.6169 417.398 42.4287V41.8887H427.099V43.3255C427.099 45.7201 427.639 47.7109 428.714 49.2979C429.794 50.8849 431.588 52.0822 434.104 52.8898C436.621 53.6974 440.091 54.1012 444.523 54.1012C448.355 54.1012 451.411 53.8195 453.684 53.2467C455.961 52.6785 457.59 51.7817 458.581 50.5516C459.567 49.3261 460.065 47.7813 460.065 45.9267C460.065 43.2926 459.224 41.377 457.548 40.1797C455.872 38.9823 453.148 38.0245 449.373 37.3061L434.64 34.8833C431.287 34.226 428.292 33.2494 425.657 31.9629C423.023 30.6764 420.972 28.9391 419.502 26.7511C418.032 24.5678 417.3 21.8257 417.3 18.5296C417.3 16.3745 417.779 14.2475 418.737 12.1534C419.694 10.0593 421.192 8.17176 423.23 6.49553C425.263 4.81931 427.916 3.48584 431.179 2.49983C434.442 1.51382 438.438 1.01611 443.171 1.01611C449.04 1.01611 453.862 1.91292 457.632 3.71122C461.407 5.50952 464.206 7.94638 466.032 11.0312C467.859 14.116 468.774 17.6328 468.774 21.5862V22.1262H459.163V20.9571C459.163 18.5014 458.623 16.4496 457.548 14.8015C456.468 13.1535 454.703 11.928 452.247 11.1204C449.791 10.3128 446.467 9.90902 442.274 9.90902C438.621 9.90902 435.673 10.2095 433.423 10.8058C431.179 11.4068 429.545 12.2895 428.526 13.454C427.507 14.6231 427 16.135 427 17.9896C427 19.6659 427.357 21.0463 428.08 22.1215C428.799 23.2014 429.907 24.0513 431.404 24.6804C432.902 25.3096 434.818 25.8918 437.152 26.4318L451.791 28.9485C455.801 29.6669 459.14 30.7468 461.807 32.1835C464.469 33.6203 466.46 35.4468 467.779 37.663C469.094 39.8792 469.756 42.4569 469.756 45.3867C469.756 48.3166 468.887 51.3169 467.15 54.012C465.413 56.7071 462.689 58.8764 458.975 60.5244C455.261 62.1725 450.444 62.9941 444.514 62.9941L444.523 62.9988Z" fill="#222222"/>
</g>
<defs>
<clipPath id="clip0_148_369">
<rect width="470" height="74.2187" fill="white" transform="translate(0 0.78125)"/>
</clipPath>
</defs>
</svg>
