<svg width="32" height="24" viewBox="0 0 32 24" fill="none" xmlns="http://www.w3.org/2000/svg">
<g clip-path="url(#clip0_218_234)">
<path d="M15.7299 2L22.0199 2.1C22.1399 2.1 22.2599 2.16 22.3699 2.16C26.4299 2.34 29.5499 1.79 30.2399 6.66C30.6899 9.86 30.6699 14.08 30.2399 17.28C29.6399 21.73 27.3499 21.62 23.4399 21.84C19.0999 22.08 14.5699 22.03 10.2399 21.84C7.31994 21.71 3.40994 22.15 2.51994 18.62C1.88994 16.08 1.95994 12.54 2.06994 9.92C2.20994 6.5 1.96994 2.97 6.14994 2.41C9.28994 1.98 12.5699 2.14 15.7299 2ZM13.4199 16.25L20.7899 12L13.4199 7.75V16.25Z" fill="#EAE4D6"/>
</g>
<defs>
<clipPath id="clip0_218_234">
<rect width="28.57" height="20" fill="white" transform="translate(2 2)"/>
</clipPath>
</defs>
</svg>
