<svg width="24" height="24" viewBox="0 0 24 24" fill="none" xmlns="http://www.w3.org/2000/svg">
<g clip-path="url(#clip0_218_224)">
<path d="M16.1409 21.9998H7.86192C7.83111 21.991 7.8003 21.9763 7.769 21.9743C7.14788 21.9323 6.5473 21.7958 5.97118 21.564C4.52695 20.983 3.4378 20.0019 2.70957 18.6257C2.18969 17.6431 1.99749 16.5872 2.0014 15.4824C2.00972 13.1589 1.99993 10.8358 2.00776 8.51222C2.00923 8.10385 2.02781 7.69059 2.08992 7.28759C2.33152 5.70985 3.08616 4.41235 4.31714 3.40487C5.49971 2.437 6.874 1.99684 8.39892 2.00026C10.7934 2.00564 13.1879 2.00515 15.5824 2.00026C16.8627 1.99782 18.0546 2.29957 19.1311 3.00383C20.452 3.86851 21.3402 5.0589 21.7593 6.58284C21.8738 6.99904 21.9202 7.43382 21.998 7.86029V16.1407C21.9882 16.1901 21.973 16.2395 21.9686 16.2894C21.9011 17.0949 21.6908 17.8618 21.3152 18.5773C20.4652 20.1966 19.1653 21.274 17.3997 21.7645C16.9899 21.8785 16.5605 21.923 16.1404 21.9993L16.1409 21.9998ZM12.0014 20.1252C13.2182 20.1252 14.4355 20.132 15.6523 20.1208C15.9888 20.1178 16.3326 20.0963 16.6593 20.022C18.7476 19.5466 20.1199 17.8168 20.1229 15.6717C20.1263 13.2244 20.1273 10.7766 20.1195 8.32931C20.1185 7.99968 20.094 7.66222 20.0212 7.34188C19.5453 5.25306 17.8159 3.88025 15.6719 3.8778C13.2251 3.87438 10.7777 3.8734 8.33094 3.88122C8.0013 3.8822 7.66385 3.90666 7.3435 3.98002C5.27034 4.45246 3.88774 6.17398 3.88089 8.29116C3.87307 10.7649 3.87796 13.2381 3.87992 15.7118C3.87992 16.3437 3.98702 16.9584 4.26432 17.5292C5.08792 19.2228 6.45095 20.0924 8.33142 20.1217C9.55459 20.1408 10.7782 20.1252 12.0019 20.1252H12.0014Z" fill="#EAE4D6"/>
<path d="M16.9988 11.9722C17.0282 14.7145 14.7843 16.9798 12.0196 16.9994C9.28081 17.019 7.03305 14.7912 7.00321 12.0285C6.97387 9.28628 9.21772 7.02091 11.9824 7.00135C14.7212 6.98179 16.969 9.2095 16.9988 11.9722ZM15.1247 12.0055C15.1276 10.2928 13.7304 8.88622 12.0162 8.87693C10.2971 8.86715 8.88124 10.2742 8.87782 11.9957C8.87439 13.7075 10.2731 15.1155 11.9863 15.1253C13.7044 15.1351 15.1213 13.7265 15.1247 12.006V12.0055Z" fill="#EAE4D6"/>
<path d="M17.3764 7.28803C17.0116 7.28901 16.7191 7.00192 16.7132 6.63757C16.7074 6.26734 17.0057 5.96119 17.373 5.96021C17.7368 5.95923 18.0459 6.27126 18.0406 6.63463C18.0352 6.99557 17.7388 7.28705 17.3764 7.28803Z" fill="#EAE4D6"/>
</g>
<defs>
<clipPath id="clip0_218_224">
<rect width="19.9971" height="19.9995" fill="white" transform="translate(2.00146 2.00024)"/>
</clipPath>
</defs>
</svg>
