<svg width="24" height="24" viewBox="0 0 24 24" fill="none" xmlns="http://www.w3.org/2000/svg">
<g clip-path="url(#clip0_218_229)">
<path d="M8.25122 21.9984V8.26237H12.7208V10.8006L12.7609 10.8207C12.803 10.7703 12.8455 10.7195 12.8876 10.6691C13.741 9.64154 14.7607 8.85805 16.0558 8.45995C18.3803 7.74493 20.812 8.89131 21.6987 11.1469C21.8258 11.4697 21.8733 11.8243 21.9574 12.1637C21.9696 12.2136 21.9828 12.263 21.996 12.3124V21.9984H17.5445C17.5386 21.9147 17.5279 21.8306 17.5279 21.747C17.5269 19.0718 17.5171 16.3971 17.5362 13.7223C17.5396 13.2514 17.389 12.8738 17.1097 12.5271C16.8359 12.1872 16.4964 11.9876 16.0357 11.994C15.6039 11.9998 15.239 12.1671 14.8903 12.3842C14.0486 12.908 13.3972 13.6333 12.7971 14.4085C12.7409 14.4814 12.7252 14.6012 12.7252 14.699C12.7213 17.0617 12.7223 19.4244 12.7233 21.7866C12.7233 21.857 12.7355 21.9279 12.7419 21.9984H8.25122Z" fill="#EAE4D6"/>
<path d="M2.00342 21.9982V8.26416H6.47498V8.53266C6.47498 12.9309 6.47498 17.3295 6.47596 21.7277C6.47596 21.8177 6.48818 21.9077 6.49454 21.9982H2.00342Z" fill="#EAE4D6"/>
<path d="M6.37631 4.181C6.37973 5.38411 5.40355 6.3691 4.2024 6.37497C2.99097 6.38035 2.00305 5.39634 2.00403 4.18589C2.0055 2.98327 2.98559 2.00269 4.18772 2.00171C5.39034 2.00073 6.37289 2.97887 6.37631 4.181Z" fill="#EAE4D6"/>
</g>
<defs>
<clipPath id="clip0_218_229">
<rect width="19.9932" height="19.9966" fill="white" transform="translate(2.00342 2.00171)"/>
</clipPath>
</defs>
</svg>
