<svg width="470" height="76" viewBox="0 0 470 76" fill="none" xmlns="http://www.w3.org/2000/svg">
<path d="M9.84603 62.2111H0.234741V2.02197H9.84603V62.2064V62.2111ZM27.6318 62.2111H3.3806V53.4966H27.6365C32.3084 53.4966 36.1256 52.7923 39.0884 51.3884C42.0511 49.9798 44.2532 47.7073 45.69 44.5614C47.1267 41.4156 47.8451 37.2696 47.8451 32.1189C47.8451 26.9681 47.1267 22.747 45.69 19.6341C44.2532 16.5211 42.0511 14.2579 39.0884 12.854C36.1256 11.4454 32.3084 10.7412 27.6365 10.7412H3.3806V2.02197H27.6365C33.9236 2.02197 39.3278 3.23336 43.8494 5.66083C48.371 8.08831 51.8737 11.544 54.3575 16.0375C56.8413 20.5309 58.0856 25.8882 58.0856 32.1142C58.0856 38.3402 56.8413 43.7022 54.3575 48.1956C51.8737 52.689 48.371 56.1447 43.8494 58.5722C39.3278 60.995 33.9236 62.2111 27.6365 62.2111H27.6318Z" fill="#EAE4D6"/>
<path d="M92.3097 41.9978H83.3276L56.5549 2.02197H68.4106L82.6045 23.3997L87.6332 31.0343H88.3515L93.291 23.3997L107.4 2.02197H119.35L92.3097 41.9978ZM92.5773 62.2111H82.966V35.7108H92.5773V62.2111Z" fill="#EAE4D6"/>
<path d="M161.209 62.2111H126.266V2.02197H159.95C163.843 2.02197 167.148 2.5901 169.876 3.72637C172.599 4.86263 174.698 6.54355 176.163 8.75504C177.628 10.9712 178.365 13.6663 178.365 16.8404C178.365 20.3759 177.332 23.3668 175.266 25.8225C173.2 28.2781 169.862 29.7759 165.251 30.3159V30.9451C170.402 31.546 174.233 33.1471 176.75 35.753C179.267 38.3589 180.525 41.6363 180.525 45.5897C180.525 49.0032 179.774 51.9659 178.281 54.4826C176.783 56.9993 174.6 58.915 171.721 60.2297C168.848 61.549 165.345 62.2064 161.213 62.2064L161.209 62.2111ZM135.873 10.7365V27.2639H158.598C162.011 27.2639 164.556 26.5925 166.233 25.2403C167.909 23.8927 168.749 21.8127 168.749 18.9955C168.749 16.1783 167.942 14.0983 166.326 12.7507C164.711 11.4032 162.223 10.7271 158.87 10.7271H135.873V10.7365ZM135.873 35.26V53.4966H160.129C163.721 53.4966 166.402 52.7641 168.167 51.2945C169.932 49.8296 170.815 47.4772 170.815 44.2422C170.815 41.0071 169.932 38.7768 168.167 37.3682C166.402 35.9596 163.721 35.2553 160.129 35.2553H135.873V35.26Z" fill="#EAE4D6"/>
<path d="M203.255 39.7536H191.038V25.832H203.255V39.7536Z" fill="#EAE4D6"/>
<path d="M218.876 62.2111H208.096L234.953 2.02197H248.607L275.464 62.2064H264.505L245.55 19.5355L242.048 11.0041H241.329L237.827 19.5355L218.872 62.2064L218.876 62.2111ZM261.543 46.5804H221.388V37.8659H261.543V46.5804Z" fill="#EAE4D6"/>
<path d="M293.255 62.2111H283.554V2.02197H314.815C319.365 2.02197 323.305 2.71218 326.629 4.08791C329.953 5.46833 332.498 7.47322 334.263 10.1073C336.029 12.746 336.912 15.9482 336.912 19.7186C336.912 23.0757 336.207 25.9492 334.799 28.3439C333.39 30.7385 331.357 32.626 328.69 34.0017C326.023 35.3821 322.807 36.1897 319.032 36.4245V37.0536C321.365 37.6546 323.178 38.6266 324.469 39.9741C325.755 41.3217 326.939 42.9556 328.019 44.8713L338.081 62.2064H326.943L317.332 45.5897C316.435 43.9745 315.459 42.6692 314.412 41.6832C313.365 40.6972 312.059 39.9788 310.505 39.5281C308.946 39.0773 306.88 38.8519 304.307 38.8519H293.259V62.2064L293.255 62.2111ZM293.255 10.7365V31.3958H314.726C318.736 31.3958 321.76 30.6164 323.798 29.0622C325.831 27.5034 326.849 24.8412 326.849 21.0661C326.849 17.2911 325.831 14.7791 323.798 13.1592C321.76 11.5441 318.736 10.7318 314.726 10.7318H293.255V10.7365Z" fill="#EAE4D6"/>
<path d="M377.066 63.1082C370.779 63.1082 365.281 61.8358 360.581 59.2909C355.881 56.7461 352.228 53.1542 349.622 48.5105C347.016 43.8715 345.715 38.4062 345.715 32.1145C345.715 25.8228 347.016 20.3622 349.622 15.7232C352.228 11.0842 355.881 7.48763 360.581 4.94277C365.281 2.39792 370.774 1.12549 377.066 1.12549C383.358 1.12549 389.011 2.39792 393.683 4.94277C398.354 7.48763 401.993 11.0842 404.599 15.7232C407.205 20.3668 408.506 25.8275 408.506 32.1145C408.506 38.4015 407.2 43.8668 404.599 48.5105C401.993 53.1542 398.354 56.7461 393.683 59.2909C389.011 61.8358 383.47 63.1082 377.066 63.1082ZM377.066 53.7645C381.794 53.7645 385.733 52.9992 388.879 51.4732C392.02 49.9473 394.373 47.5808 395.932 44.3786C397.49 41.1764 398.265 37.0868 398.265 32.1145C398.265 27.1422 397.486 22.9821 395.932 19.8081C394.373 16.6341 392.025 14.2864 388.879 12.7558C385.733 11.2298 381.794 10.4644 377.066 10.4644C372.338 10.4644 368.398 11.2298 365.252 12.7558C362.107 14.2817 359.773 16.6341 358.247 19.8081C356.721 22.9821 355.956 27.0858 355.956 32.1145C355.956 37.1432 356.721 41.1717 358.247 44.3786C359.773 47.5855 362.111 49.9473 365.252 51.4732C368.394 52.9992 372.333 53.7645 377.066 53.7645ZM396.828 74.8746H384.611L370.328 55.6521H381.198L396.828 74.8746Z" fill="#EAE4D6"/>
<path d="M444.523 63.1082C438.593 63.1082 433.611 62.2677 429.569 60.5915C425.526 58.9153 422.488 56.5348 420.45 53.45C418.413 50.3651 417.399 46.7263 417.399 42.5381V41.9981H427.099V43.4349C427.099 45.8295 427.639 47.8203 428.714 49.4073C429.794 50.9943 431.588 52.1916 434.104 52.9992C436.621 53.8068 440.091 54.2106 444.523 54.2106C448.355 54.2106 451.411 53.9289 453.684 53.3561C455.961 52.7879 457.59 51.8911 458.581 50.661C459.567 49.4355 460.065 47.8907 460.065 46.0361C460.065 43.402 459.224 41.4863 457.548 40.289C455.872 39.0917 453.149 38.1339 449.374 37.4155L434.64 34.9927C431.287 34.3354 428.292 33.3588 425.658 32.0722C423.023 30.7857 420.972 29.0485 419.502 26.8605C418.032 24.6771 417.3 21.9351 417.3 18.639C417.3 16.4838 417.779 14.3569 418.737 12.2628C419.695 10.1686 421.192 8.28113 423.23 6.60491C425.263 4.92869 427.916 3.59522 431.179 2.6092C434.442 1.62319 438.438 1.12549 443.171 1.12549C449.04 1.12549 453.862 2.02229 457.633 3.82059C461.408 5.61889 464.206 8.05576 466.032 11.1406C467.859 14.2254 468.775 17.7422 468.775 21.6956V22.2356H459.163V21.0664C459.163 18.6108 458.623 16.559 457.548 14.9109C456.468 13.2629 454.703 12.0374 452.247 11.2298C449.791 10.4222 446.467 10.0184 442.274 10.0184C438.621 10.0184 435.673 10.3189 433.424 10.9152C431.179 11.5162 429.545 12.3989 428.526 13.5634C427.508 14.7325 427 16.2444 427 18.099C427 19.7752 427.357 21.1557 428.08 22.2309C428.799 23.3108 429.907 24.1607 431.405 24.7898C432.902 25.419 434.818 26.0012 437.152 26.5412L451.792 29.0579C455.801 29.7762 459.14 30.8562 461.807 32.2929C464.469 33.7297 466.46 35.5562 467.779 37.7723C469.094 39.9885 469.756 42.5662 469.756 45.4961C469.756 48.426 468.887 51.4263 467.15 54.1214C465.413 56.8165 462.689 58.9857 458.975 60.6338C455.261 62.2818 450.444 63.1035 444.514 63.1035L444.523 63.1082Z" fill="#EAE4D6"/>
</svg>
